<svg width="24" height="24" viewBox="0 0 24 24" fill="none" xmlns="http://www.w3.org/2000/svg">
<path fill-rule="evenodd" clip-rule="evenodd" d="M8.80997 5.15479C8.80997 7.99714 11.1224 10.3098 13.9648 10.3098C16.8071 10.3098 19.1195 7.99714 19.1195 5.15479C19.1195 2.31244 16.8071 0 13.9648 0C11.1224 0 8.80997 2.31244 8.80997 5.15479ZM18.1824 5.15479C18.1824 7.48042 16.2904 9.37245 13.9648 9.37245C11.6391 9.37245 9.7471 7.48042 9.7471 5.15479C9.7471 2.82935 11.6391 0.937318 13.9648 0.937318C16.2904 0.937318 18.1824 2.82935 18.1824 5.15479ZM5.39773 23.8614C5.57937 24.0445 5.87508 24.0465 6.0591 23.8653L8.33108 21.627C8.71707 21.241 8.83444 20.6695 8.6647 20.1727L9.15341 19.7014C9.41653 19.4473 9.76297 19.3072 10.1292 19.3072H16.359C17.4642 19.3072 18.5088 18.8828 19.3008 18.1121C19.3027 18.1102 19.3036 18.1096 19.3044 18.109C19.3115 18.1036 19.3173 18.0966 20.081 17.1832C20.6703 16.4785 21.7106 15.2343 23.5508 13.0349C24.2179 12.2457 24.1181 11.0607 23.3282 10.3929C22.5432 9.73133 21.3673 9.82636 20.6984 10.602L17.9331 13.4442C17.584 13.0144 17.0515 12.7465 16.4762 12.7465H11.2505C10.5069 12.4354 9.71792 12.278 8.90384 12.278C6.64724 12.278 4.67684 13.3202 3.61941 15.2743C3.17391 15.1899 2.70406 15.3247 2.36605 15.6627L0.136735 17.8986C-0.0452726 18.0811 -0.0456388 18.3765 0.136002 18.5596L5.39773 23.8614ZM8.90365 13.2151C9.62143 13.2151 10.3154 13.3596 10.9667 13.6445C11.026 13.6705 11.0899 13.6838 11.1546 13.6838H16.4762C16.9843 13.6838 17.4135 14.0982 17.4135 14.621C17.4135 15.1379 16.9931 15.5583 16.4762 15.5583H12.6527C12.394 15.5583 12.1842 15.7681 12.1842 16.0269C12.1842 16.2858 12.394 16.4954 12.6527 16.4954H16.4762C17.5098 16.4954 18.3506 15.6546 18.3506 14.621C18.3506 14.5386 18.3448 14.4569 18.3341 14.376L20.285 12.371C21.2167 11.4134 21.3916 11.2337 21.4024 11.2207C21.7364 10.8265 22.3293 10.7765 22.7237 11.109C23.1185 11.4428 23.1685 12.0353 22.8336 12.4318L18.6304 17.4566C18.0166 18.0458 17.2108 18.3701 16.359 18.3701H10.1292C9.5187 18.3701 8.94082 18.6035 8.50247 19.0271L8.10421 19.4114L4.43294 15.7403C5.29098 14.1306 6.90102 13.2151 8.90365 13.2151ZM3.02926 16.325C3.1838 16.1704 3.4211 16.1426 3.60952 16.259C3.61457 16.2621 3.61841 16.2642 3.62218 16.2664C3.6546 16.2852 3.682 16.3126 4.43844 17.0706C5.00443 17.6377 5.97859 18.6138 7.66842 20.3013C7.85574 20.4886 7.84567 20.7871 7.67098 20.9618L5.73409 22.8699L1.12953 18.2302L3.02926 16.325ZM13.8805 3.38488V2.9262C13.8805 2.70993 14.0644 2.53466 14.2912 2.53466C14.518 2.53466 14.7019 2.70993 14.7019 2.9262V3.38213C14.8897 3.44147 15.0984 3.55022 15.3069 3.74247C15.4698 3.89281 15.4741 4.14059 15.3163 4.29598C15.1586 4.45122 14.8986 4.45535 14.7355 4.305C14.5904 4.17118 14.4368 4.10036 14.2912 4.10036C14.0648 4.10036 13.8805 4.2761 13.8805 4.4919C13.8805 4.70771 14.0648 4.88329 14.2912 4.88329C14.9708 4.88329 15.5236 5.41004 15.5236 6.05761C15.5236 6.56784 15.1801 7.00297 14.7019 7.16463V7.62332C14.7019 7.83958 14.518 8.0147 14.2912 8.0147C14.0644 8.0147 13.8805 7.83958 13.8805 7.62332V7.16647C13.6068 7.07898 13.3486 6.90554 13.129 6.6567C12.983 6.49121 13.0054 6.24436 13.1791 6.10518C13.3528 5.96615 13.6118 5.98741 13.7579 6.15289C13.9262 6.34392 14.1158 6.449 14.2912 6.449C14.5177 6.449 14.7019 6.27342 14.7019 6.05761C14.7019 5.8418 14.5177 5.66622 14.2912 5.66622C13.6117 5.66622 13.0589 5.13932 13.0589 4.4919C13.0589 3.98152 13.4024 3.54639 13.8805 3.38488Z" fill="white"/>
</svg>
