<svg width="42" height="50" viewBox="0 0 42 50" fill="none" xmlns="http://www.w3.org/2000/svg">
<path fill-rule="evenodd" clip-rule="evenodd" d="M35.1562 4.49219H38.0859C39.7014 4.49219 41.0156 5.80645 41.0156 7.42188C41.0156 13.7746 38.0433 18.4433 33.2211 19.7437C31.5679 23.3829 28.9538 26.4767 25.6355 28.7123C24.8706 29.2272 24.4141 30.1104 24.4141 31.0752V36.4518C26.097 36.8864 27.3438 38.4176 27.3438 40.2344H28.3203C29.9357 40.2344 31.25 41.5486 31.25 43.1641V49.0234C31.25 49.5628 30.8127 50 30.2734 50H10.7422C10.2029 50 9.76562 49.5628 9.76562 49.0234V43.1641C9.76562 41.5486 11.0799 40.2344 12.6953 40.2344H13.6719C13.6719 39.1914 14.0783 38.2106 14.8163 37.4726C15.318 36.9708 15.9321 36.6228 16.6016 36.4511V31.0703C16.6016 30.1087 16.1453 29.2271 15.3811 28.7122C12.0631 26.4768 9.44902 23.3831 7.7957 19.7439C2.97285 18.444 0 13.7751 0 7.42188C0 5.80645 1.31426 4.49219 2.92969 4.49219H5.85938V2.92969C5.85938 1.31426 7.17363 0 8.78906 0H32.2266C33.842 0 35.1562 1.31426 35.1562 2.92969V4.49219ZM2.92969 6.44531C2.39121 6.44531 1.95312 6.8834 1.95312 7.42188C1.95312 12.2213 3.75459 15.7765 6.8623 17.3158C6.19658 15.2165 5.85938 13.0366 5.85938 10.8105V6.44531H2.92969ZM29.2969 43.1641C29.2969 42.6256 28.8588 42.1875 28.3203 42.1875H12.6953C12.1568 42.1875 11.7188 42.6256 11.7188 43.1641V48.0469H29.2969V43.1641ZM31.6244 18.5254C32.6721 16.0738 33.2031 13.4781 33.2031 10.8105V2.92969C33.2031 2.39121 32.765 1.95312 32.2266 1.95312H8.78906C8.25059 1.95312 7.8125 2.39121 7.8125 2.92969V10.8105C7.8125 13.4789 8.34394 16.0745 9.39199 18.5252C10.8824 22.0135 13.3307 24.9759 16.4724 27.0925C17.7762 27.971 18.5546 29.458 18.5546 31.0703V37.3047C18.5546 37.844 18.1173 38.2856 17.578 38.2856C17.5523 38.2856 17.5269 38.2847 17.5016 38.2827C17.009 38.3017 16.5483 38.5026 16.1974 38.8536C15.8283 39.2228 15.625 39.7131 15.625 40.2344H25.3906C25.3906 39.1574 24.5145 38.2812 23.4375 38.2812C22.8982 38.2812 22.4609 37.844 22.4609 37.3047V31.0752C22.4609 29.4595 23.2398 27.9705 24.5445 27.0923C27.6859 24.9758 30.1342 22.0134 31.6244 18.5254ZM35.1562 10.8105C35.1562 13.036 34.8191 15.2158 34.1537 17.3156C37.2612 15.7761 39.0625 12.221 39.0625 7.42188C39.0625 6.8834 38.6244 6.44531 38.0859 6.44531H35.1562V10.8105ZM27.4476 10.8744C27.8156 10.9277 28.1212 11.1854 28.236 11.5391C28.3508 11.8927 28.2551 12.2808 27.9888 12.5402L24.9387 15.5128L25.6594 19.7106C25.7223 20.077 25.5717 20.4474 25.2711 20.6659C24.9722 20.8831 24.5737 20.9144 24.2426 20.7403L20.4724 18.7586L16.7031 20.7403C16.3742 20.9133 15.9754 20.8845 15.6747 20.666C15.3739 20.4475 15.2233 20.0772 15.2861 19.7108L16.006 15.5129L12.9558 12.5402C12.6896 12.2808 12.5938 11.8927 12.7086 11.5391C12.8236 11.1855 13.1292 10.9278 13.4971 10.8744L17.7115 10.2627L19.5965 6.44287C19.7611 6.10947 20.1005 5.89844 20.4723 5.89844C20.8441 5.89844 21.1835 6.10947 21.3481 6.44287L23.2332 10.2627L27.4476 10.8744ZM22.9269 15.3371C22.8724 15.0202 22.9776 14.6969 23.2078 14.4725L25.2083 12.5228L22.4444 12.1217C22.1262 12.0755 21.8512 11.8757 21.7089 11.5874L20.4724 9.08164L19.2359 11.5874C19.0936 11.8757 18.8186 12.0755 18.5004 12.1217L15.7367 12.5228L17.7371 14.4725C17.9672 14.6968 18.0723 15.02 18.018 15.3369L17.5458 18.0907L20.0179 16.7909C20.3022 16.6413 20.642 16.6413 20.9267 16.7908L23.3997 18.0907L22.9269 15.3371Z" fill="white"/>
</svg>
