<svg width="32" height="30" viewBox="0 0 32 30" fill="none" xmlns="http://www.w3.org/2000/svg">
<path d="M6.36063 29.9986C6.24398 29.9986 6.12732 29.9626 6.02926 29.891C5.85569 29.7648 5.7689 29.5512 5.80553 29.3398L7.54748 19.1857L0.169975 11.9953C0.0166881 11.8454 -0.0385404 11.6216 0.0273957 11.4182C0.0938952 11.2142 0.270288 11.0654 0.482749 11.0344L10.6775 9.55283L15.2372 0.314464C15.3319 0.121728 15.528 0 15.7421 0C15.9569 0 16.153 0.121728 16.2471 0.314464L20.8063 9.55283L31.0015 11.0344C31.214 11.0654 31.3898 11.2136 31.4569 11.4182C31.5228 11.6216 31.4682 11.8459 31.3143 11.9953L23.9368 19.1868L25.6782 29.3404C25.7143 29.5517 25.6275 29.7653 25.4545 29.8916C25.2809 30.0189 25.0504 30.0353 24.8605 29.9344L15.7421 25.1408L6.62269 29.9344C6.54041 29.9772 6.45024 29.9986 6.36063 29.9986ZM1.77442 11.9851L8.5461 18.5861C8.67854 18.7151 8.7394 18.9022 8.70784 19.0848L7.10904 28.4049L15.4801 24.0047C15.6441 23.9179 15.8396 23.9179 16.0048 24.0047L24.3747 28.4049L22.7764 19.0848C22.7449 18.9022 22.8058 18.7157 22.9382 18.5861L29.7099 11.9851L20.352 10.6253C20.1683 10.5988 20.01 10.4833 19.9277 10.317L15.7421 1.83776L11.5566 10.3176C11.4743 10.4838 11.316 10.5994 11.1323 10.6258L1.77442 11.9851Z" fill="white"/>
</svg>
