<svg width="19" height="24" viewBox="0 0 19 24" fill="none" xmlns="http://www.w3.org/2000/svg">
<path d="M17.0947 13.3094L13.5112 7.69178C14.019 7.42495 14.3663 6.89251 14.3663 6.2802C14.3663 5.60998 13.9502 5.03545 13.363 4.80026L14.4486 1.00485C14.4954 0.841107 14.4498 0.664894 14.3294 0.544465C13.6072 -0.177641 12.4323 -0.177641 11.7101 0.544465C11.5374 0.717209 11.3077 0.812324 11.0635 0.812324C10.8192 0.812324 10.5895 0.717209 10.4157 0.54334L10.4134 0.541043C9.69382 -0.178625 8.52089 -0.180641 7.79841 0.536777L7.78496 0.550184C7.42836 0.904252 6.84918 0.90322 6.4939 0.547887L6.49048 0.544465C5.76832 -0.177641 4.59338 -0.177641 3.87123 0.544465C3.75075 0.664988 3.70514 0.841342 3.75206 1.00518L4.84 4.79937C4.2515 5.03395 3.83433 5.60909 3.83433 6.28024C3.83433 6.89256 4.1816 7.425 4.68938 7.69183L1.10581 13.3094C-0.280552 15.4827 -0.368401 18.1297 0.870813 20.3901C2.11003 22.6505 4.38885 24 6.96671 24H11.2338C13.8116 24 16.0904 22.6505 17.3297 20.3901C18.5689 18.1297 18.4811 15.4827 17.0947 13.3094ZM5.82748 1.20741L5.83091 1.21083C6.55057 1.93045 7.72345 1.93242 8.44589 1.2151L8.45934 1.20169C8.8159 0.847623 9.39507 0.848655 9.75148 1.20507L9.75378 1.20736C10.4759 1.92947 11.6509 1.92947 12.373 1.20736C12.6669 0.913533 13.1125 0.861827 13.4598 1.05224L12.4204 4.68635H5.783L4.7409 1.0522C5.08817 0.861827 5.5337 0.913627 5.82748 1.20741ZM16.5076 19.9394C15.4355 21.895 13.464 23.0625 11.2339 23.0625H6.96675C4.73659 23.0625 2.7651 21.895 1.693 19.9394C0.620908 17.9838 0.696897 15.6939 1.89627 13.8136L5.68516 7.87404H6.9908C7.24971 7.87404 7.45958 7.66417 7.45958 7.40526C7.45958 7.14636 7.24971 6.93649 6.9908 6.93649H5.42818C5.06628 6.93649 4.77189 6.64209 4.77189 6.2802C4.77189 5.9183 5.06628 5.62391 5.42818 5.62391H5.42973H12.7724C13.1343 5.62391 13.4287 5.9183 13.4287 6.2802C13.4287 6.64209 13.1343 6.93649 12.7724 6.93649H11.2098C10.9509 6.93649 10.741 7.14636 10.741 7.40526C10.741 7.66417 10.9509 7.87404 11.2098 7.87404H12.5154L16.3043 13.8136C17.5037 15.6938 17.5797 17.9838 16.5076 19.9394Z" fill="white"/>
<path d="M9.92693 15.3093C9.80931 15.2677 9.68926 15.2245 9.56925 15.1795V13.0549C9.88708 13.1484 10.0993 13.3001 10.1083 13.3066C10.3146 13.4611 10.6071 13.4201 10.7629 13.2145C10.9193 13.0081 10.8787 12.7141 10.6724 12.5577C10.6449 12.5369 10.209 12.2133 9.56925 12.0908V11.6243C9.56925 11.3654 9.35938 11.1555 9.10047 11.1555C8.84157 11.1555 8.6317 11.3654 8.6317 11.6243V12.0874C8.55228 12.1027 8.4718 12.122 8.39023 12.1465C7.73047 12.3447 7.23732 12.9089 7.1032 13.6189C6.9808 14.2673 7.18852 14.8926 7.64529 15.2508C7.89318 15.4452 8.2029 15.6227 8.6317 15.8113V18.53C8.26253 18.5067 8.01558 18.4227 7.6039 18.1533C7.38728 18.0115 7.09668 18.0723 6.95497 18.289C6.81321 18.5057 6.87397 18.7962 7.09063 18.9379C7.69095 19.3306 8.09743 19.4419 8.6317 19.4682V19.9529C8.6317 20.2118 8.84157 20.4217 9.10047 20.4217C9.35938 20.4217 9.56925 20.2118 9.56925 19.9529V19.4195C10.5731 19.1996 11.1602 18.3619 11.2919 17.5783C11.4641 16.5539 10.9283 15.6632 9.92693 15.3093ZM8.22391 14.513C8.04371 14.3717 7.9673 14.0957 8.02449 13.7929C8.07708 13.5143 8.2645 13.1784 8.6317 13.0542V14.771C8.47756 14.6888 8.33847 14.6029 8.22391 14.513ZM10.3673 17.4228C10.2998 17.8244 10.0288 18.2502 9.5692 18.4384V16.177C9.58449 16.1825 9.59897 16.1878 9.61444 16.1932C10.4549 16.4903 10.4032 17.2095 10.3673 17.4228Z" fill="white"/>
<path d="M9.10013 7.87408C9.22341 7.87408 9.34436 7.82392 9.43155 7.73673C9.51874 7.64953 9.5689 7.52859 9.5689 7.4053C9.5689 7.28201 9.51874 7.16107 9.43155 7.07388C9.34436 6.98668 9.22341 6.93652 9.10013 6.93652C8.97684 6.93652 8.85589 6.98668 8.7687 7.07388C8.68151 7.16107 8.63135 7.28201 8.63135 7.4053C8.63135 7.52859 8.68151 7.64953 8.7687 7.73673C8.85589 7.82392 8.97679 7.87408 9.10013 7.87408Z" fill="white"/>
</svg>
