<svg width="25" height="20" viewBox="0 0 25 20" fill="none" xmlns="http://www.w3.org/2000/svg">
<path d="M24.4362 2.67101C22.899 2.74186 22.9326 2.73608 22.7588 2.75062L23.6692 0.150807C23.6692 0.150807 20.8276 1.19614 20.1072 1.38313C18.2153 -0.317327 15.4031 -0.392459 13.3926 0.84322C11.7462 1.85537 10.8625 3.59348 11.1573 5.62504C7.95305 5.1804 5.25331 3.66153 3.12182 1.10106L2.44768 0.291378L1.94394 1.21646C1.30727 2.3854 1.09585 3.72194 1.34847 4.9798C1.45213 5.49585 1.62831 5.98803 1.87235 6.44889L1.29403 6.2248L1.22543 7.19108C1.15589 8.17266 1.4827 9.31847 2.0998 10.2559C2.27355 10.5198 2.49727 10.8098 2.78084 11.0957L2.48199 11.0499L2.84665 12.1571C3.32597 13.6118 4.32152 14.7373 5.6135 15.363C4.3232 15.9106 3.28085 16.2599 1.56753 16.8235L0 17.3388L1.44784 18.1304C1.99987 18.4323 3.95052 19.4403 5.87787 19.7427C10.1621 20.4146 14.9857 19.8674 18.233 16.9428C20.9681 14.4795 21.8656 10.9755 21.6792 7.32904C21.651 6.77702 21.8022 6.25016 22.105 5.84578C22.7115 5.0361 24.4324 2.67642 24.4362 2.67101ZM20.9601 4.98819C20.4573 5.65954 20.2054 6.51694 20.2506 7.40213C20.4387 11.0803 19.4379 13.9327 17.2758 15.8798C14.7502 18.1545 10.6765 19.0473 6.09953 18.3293C5.27065 18.1994 4.41399 17.9084 3.70499 17.6177C5.14145 17.1235 6.25073 16.683 8.04217 15.8351L10.543 14.6514L7.78191 14.4747C6.45935 14.39 5.35809 13.7491 4.68115 12.7084C5.04059 12.6875 5.38717 12.6293 5.73226 12.5331L8.36563 11.7997L5.71026 11.1494C4.41996 10.8334 3.68448 10.0614 3.29465 9.4693C3.03867 9.08021 2.87144 8.68162 2.77114 8.31416C3.03737 8.38556 3.34778 8.43646 3.84835 8.48605L6.3061 8.72916L4.35881 7.2101C2.95571 6.11574 2.39343 4.47158 2.80563 2.891C7.18458 7.43289 12.326 7.09153 12.8436 7.21159C12.7297 6.10511 12.7267 6.1025 12.6968 5.99717C12.0341 3.65426 13.4866 2.46463 14.1417 2.06193C15.5101 1.22093 17.6823 1.09416 19.1868 2.47973C19.5117 2.77877 19.9511 2.89641 20.3624 2.79424C20.7316 2.70252 21.0345 2.60539 21.3311 2.49968L20.7137 4.26296L21.5019 4.26352C21.3531 4.46301 21.1747 4.70183 20.9601 4.98819Z" fill="white"/>
</svg>
