<svg width="28" height="30" viewBox="0 0 28 30" fill="none" xmlns="http://www.w3.org/2000/svg">
<path d="M26.0206 8.48154H15.4014L20.4251 3.4578C20.8157 3.06725 20.8157 2.43413 20.4251 2.04357C20.0345 1.65309 19.4014 1.65309 19.0109 2.04357L13.5103 7.54434L6.25901 0.292859C5.86853 -0.0976995 5.23542 -0.0975395 4.84478 0.292859C4.4543 0.683417 4.4543 1.31653 4.84478 1.70709L11.619 8.48154H0.999995C0.447758 8.48154 0 8.9293 0 9.48153V24.4856C0 25.0378 0.447758 25.4856 0.999995 25.4856H9.39292V26.2751L5.35526 28.0875C4.85142 28.3137 4.6263 28.9056 4.85246 29.4093C5.01894 29.7802 5.38349 30 5.76533 30C5.90213 30 6.04133 29.9717 6.17429 29.912L10.607 27.9222H16.4138L20.8465 29.912C20.9796 29.9717 21.1185 30 21.2555 30C21.6372 30 22.0018 29.7802 22.1683 29.4093C22.3945 28.9054 22.1694 28.3137 21.6656 28.0875L17.6278 26.2751V25.4856H26.0206C26.5728 25.4856 27.0206 25.0378 27.0206 24.4856V9.48153C27.0206 8.92922 26.573 8.48154 26.0206 8.48154ZM15.6278 25.9223H11.3927V25.4855H15.6278V25.9223ZM25.0206 23.4855H1.99999V10.4815H25.0207V23.4855H25.0206Z" fill="white"/>
</svg>
