<svg width="50" height="50" viewBox="0 0 50 50" fill="none" xmlns="http://www.w3.org/2000/svg">
<path d="M49.9702 24.7783L43.641 1.83333C43.494 1.30683 43.179 0.842767 42.744 0.51181C42.3089 0.180852 41.7776 0.00112781 41.231 0H8.76934C8.2227 0.00112781 7.69141 0.180852 7.25635 0.51181C6.82129 0.842767 6.5063 1.30683 6.35934 1.83333L0.0260024 24.7767C0.00734261 24.8496 -0.00134749 24.9247 0.000169108 25V45.8333C0.00149232 46.938 0.440904 47.997 1.22202 48.7781C2.00313 49.5593 3.06217 49.9987 4.16684 50H45.8335C46.9382 49.9987 47.9972 49.5593 48.7783 48.7781C49.5594 47.997 49.9988 46.938 50.0002 45.8333V25C50.0002 24.9251 49.9901 24.8505 49.9702 24.7783ZM7.97017 2.27833C8.01849 2.1032 8.12272 1.94866 8.26699 1.83824C8.41126 1.72782 8.58766 1.66757 8.76934 1.66667H41.231C41.4134 1.66666 41.5907 1.72649 41.7359 1.83698C41.881 1.94747 41.9858 2.10252 42.0343 2.27833L48.0727 24.1667H1.92767L7.97017 2.27833ZM45.8335 48.3333H4.16684C3.50379 48.3333 2.86791 48.0699 2.39907 47.6011C1.93023 47.1323 1.66684 46.4964 1.66684 45.8333V25.8333H48.3335V45.8333C48.3335 46.4964 48.0701 47.1323 47.6013 47.6011C47.1324 48.0699 46.4965 48.3333 45.8335 48.3333Z" fill="white"/>
<path d="M4.5477 22.1716C4.62584 22.2742 4.72673 22.3573 4.84241 22.4142C4.95809 22.4712 5.08542 22.5006 5.21437 22.5H44.7885C44.9169 22.5 45.0435 22.4703 45.1585 22.4134C45.2735 22.3564 45.3738 22.2736 45.4516 22.1715C45.5293 22.0694 45.5824 21.9507 45.6068 21.8247C45.6311 21.6986 45.626 21.5687 45.5919 21.445L40.7644 3.94498C40.7159 3.76916 40.611 3.61412 40.4659 3.50363C40.3208 3.39314 40.1434 3.33331 39.961 3.33331H10.0377C9.85531 3.33331 9.67796 3.39314 9.53285 3.50363C9.38774 3.61412 9.28288 3.76916 9.23437 3.94498L4.40687 21.445C4.37277 21.5688 4.36775 21.6988 4.39218 21.8248C4.41661 21.9509 4.46983 22.0696 4.5477 22.1716ZM6.30437 20.8333L7.45353 16.6666H42.5452L43.6944 20.8333H6.30437ZM9.0627 10.8333H40.936L42.0827 15H7.91603L9.0627 10.8333ZM10.6727 4.99998H39.326L40.476 9.16665H9.5227L10.6727 4.99998Z" fill="white"/>
<path d="M31.3453 29.1667H18.657C18.3928 29.1664 18.1323 29.2289 17.897 29.349C17.6616 29.4692 17.4583 29.6436 17.3036 29.8578C17.1489 30.0721 17.0474 30.32 17.0075 30.5812C16.9675 30.8424 16.9902 31.1093 17.0737 31.36L18.0012 34.1242C18.1669 34.6212 18.4847 35.0536 18.9095 35.3603C19.3343 35.667 19.8447 35.8325 20.3687 35.8334H29.6337C30.1585 35.8333 30.6699 35.6681 31.0956 35.3612C31.5212 35.0543 31.8395 34.6212 32.0053 34.1234L32.922 31.3609C33.0055 31.1107 33.0284 30.8442 32.9889 30.5834C32.9493 30.3226 32.8484 30.075 32.6945 29.8608C32.5406 29.6466 32.338 29.472 32.1035 29.3513C31.8689 29.2306 31.6091 29.1674 31.3453 29.1667ZM30.4237 33.5967C30.3684 33.7626 30.2624 33.9069 30.1206 34.0091C29.9789 34.1114 29.8085 34.1666 29.6337 34.1667H20.3687C20.1939 34.1666 20.0235 34.1114 19.8817 34.0091C19.7399 33.9069 19.6339 33.7626 19.5787 33.5967L18.657 30.8334H31.3445L30.4237 33.5967Z" fill="white"/>
</svg>
