<svg width="25" height="30" viewBox="0 0 25 30" fill="none" xmlns="http://www.w3.org/2000/svg">
<path fill-rule="evenodd" clip-rule="evenodd" d="M4.00375 0C1.79115 0 0 1.79115 0 4.00375C0 6.21634 1.79115 8.00749 4.00375 8.00749C6.21634 8.00749 8.00749 6.21634 8.00749 4.00375C8.00047 1.79115 6.20932 0 4.00375 0ZM4.00375 6.59564C2.57083 6.59564 1.40482 5.43667 1.40482 3.99672C1.40482 2.55678 2.5638 1.3978 4.00375 1.3978C5.43667 1.3978 6.60267 2.55678 6.60267 3.99672C6.59564 5.43667 5.43667 6.59564 4.00375 6.59564ZM4.00375 10.9927C1.79115 10.9927 0 12.7839 0 14.9965C0 17.2091 1.79115 19.0002 4.00375 19.0002C6.21634 19.0002 8.00749 17.2091 8.00749 14.9965C8.00047 12.7909 6.20932 10.9998 4.00375 10.9927ZM4.00375 17.5954C2.57083 17.5954 1.40482 16.4364 1.40482 14.9965C1.40482 13.5636 2.5638 12.3976 4.00375 12.3976C5.43667 12.3976 6.60267 13.5565 6.60267 14.9965C6.59564 16.4294 5.43667 17.5884 4.00375 17.5954ZM24.1629 12.1166H9.86882C9.48249 12.1166 9.1664 12.4327 9.1664 12.819C9.1664 13.2053 9.48249 13.5214 9.86882 13.5214H24.1629C24.5492 13.5214 24.8653 13.2053 24.8653 12.819C24.8653 12.4327 24.5492 12.1166 24.1629 12.1166ZM9.86882 16.4716H17.5672C17.9536 16.4716 18.2697 16.7876 18.2697 17.174C18.2697 17.5603 17.9536 17.8764 17.5672 17.8764H9.86882C9.47546 17.8764 9.1664 17.5603 9.1664 17.174C9.1664 16.7876 9.48249 16.4716 9.86882 16.4716ZM9.86882 1.08874H24.1629C24.5492 1.08874 24.8653 1.40482 24.8653 1.79115C24.8653 2.17748 24.5492 2.49356 24.1629 2.49356H9.86882C9.48249 2.49356 9.1664 2.17748 9.1664 1.79115C9.1664 1.40482 9.48249 1.08874 9.86882 1.08874ZM17.5672 5.51393H9.86882C9.48249 5.51393 9.1664 5.83002 9.1664 6.21634C9.1664 6.60267 9.47546 6.91875 9.86882 6.91875H17.5672C17.9536 6.91875 18.2697 6.60267 18.2697 6.21634C18.2697 5.83002 17.9536 5.51393 17.5672 5.51393ZM0 25.9963C0 23.7837 1.79115 21.9925 4.00375 21.9925C6.20932 21.9925 8.00047 23.7837 8.00749 25.9963C8.00749 28.2089 6.21634 30 4.00375 30C1.79115 30 0 28.2089 0 25.9963ZM1.40482 25.9892C1.40482 27.4292 2.57083 28.5882 4.00375 28.5882C5.43667 28.5882 6.59564 27.4292 6.60267 25.9892C6.60267 24.5493 5.43667 23.3903 4.00375 23.3903C2.5638 23.3903 1.40482 24.5563 1.40482 25.9892ZM24.1629 23.0742H9.86882C9.48249 23.0742 9.1664 23.3903 9.1664 23.7766C9.1664 24.163 9.48249 24.479 9.86882 24.479H24.1629C24.5492 24.479 24.8653 24.163 24.8653 23.7766C24.8653 23.3903 24.5492 23.0742 24.1629 23.0742ZM9.86882 27.4994H17.5672C17.9536 27.4994 18.2697 27.8155 18.2697 28.2018C18.2697 28.5882 17.9536 28.9042 17.5672 28.9042H9.86882C9.48249 28.9042 9.1664 28.5882 9.1664 28.2018C9.1664 27.8155 9.48249 27.4994 9.86882 27.4994Z" fill="white"/>
</svg>
