<svg width="32" height="24" viewBox="0 0 32 24" fill="none" xmlns="http://www.w3.org/2000/svg">
<path d="M15.5119 0C6.94568 0 0 4.58308 0 10.2345C0 14.7069 4.35241 18.5106 10.4174 19.9027C10.4174 19.9027 12.1765 20.7555 9.28382 23.7169C8.07806 24.9483 14.0556 21.8168 15.3313 20.9349C15.7472 20.6448 15.8637 20.5749 16.2505 20.4875C16.5907 20.4363 16.8691 20.4281 17.0147 20.4188C24.8714 19.919 31.0168 15.5515 31.0168 10.2345C31.0179 4.58308 24.0746 0 15.5119 0ZM17.652 19.2119C17.539 19.2189 17.3141 19.2305 17.0438 19.2678C16.7281 19.3389 16.6349 19.1385 16.3017 19.368C15.2824 20.074 12.3291 22.2991 10.6247 22.8874C12.9419 20.5178 11.8142 18.7948 11.8142 18.7948C6.96549 17.6834 2.07951 14.4401 2.07951 10.8601C1.79642 5.50925 7.89748 1.31877 16.4497 1.64031C23.2987 1.64031 28.8534 6.54376 28.8534 11.0639C28.8545 15.3162 23.9383 18.8111 17.652 19.2119Z" fill="white"/>
</svg>
