<svg width="30" height="30" viewBox="0 0 30 30" fill="none" xmlns="http://www.w3.org/2000/svg">
<path d="M13.0225 10.0865L12.5626 12.7149L14.9707 11.4739L17.3788 12.7149L16.9189 10.0865L18.8672 8.22505L16.1748 7.84155L14.9707 5.45016L13.7666 7.84155L11.0742 8.22505L13.0225 10.0865Z" fill="white"/>
<path d="M24.5457 2.28516C24.5494 1.90799 24.5508 1.53639 24.5508 1.17188V0H5.33203V1.17188C5.33203 1.53639 5.33338 1.90799 5.33713 2.28516H0V3.45703C0 6.45615 0.78832 8.9901 2.41002 11.2038C3.78686 13.0832 5.51848 14.4023 7.04625 15.5661C7.99699 16.2903 8.84443 16.9369 9.44379 17.5904C10.6203 19.148 12.072 20.5004 13.7695 21.6204V23.5547H13.1836C10.2758 23.5547 7.91016 25.9204 7.91016 28.8281V30H21.9727V28.8281C21.9727 25.9204 19.607 23.5547 16.6992 23.5547H16.1133V21.6204C17.8078 20.5024 19.2574 19.1528 20.4328 17.5987C21.0381 16.9402 21.9028 16.2882 22.8732 15.5575C24.4174 14.3947 26.1676 13.0768 27.56 11.1996C29.2019 8.98605 30 6.45346 30 3.45703V2.28516H24.5457ZM2.39414 4.62891H5.40223C5.51561 6.92062 5.8057 9.35092 6.53408 11.7554C6.59191 11.9463 6.65291 12.1349 6.71549 12.3223C4.62791 10.5677 2.7242 8.36145 2.39414 4.62891ZM16.6992 25.8984C17.8983 25.8984 18.9313 26.6224 19.3843 27.6562H10.4985C10.9515 26.6224 11.9845 25.8984 13.1836 25.8984H16.6992ZM18.6872 16.0363C18.4628 16.2818 18.2568 16.5348 18.0758 16.7992L18.0806 16.8025C17.2226 17.8139 16.1886 18.7497 14.9414 19.5856C13.6942 18.7497 12.6602 17.814 11.8022 16.8025L11.807 16.7992C11.6235 16.5311 11.415 16.2746 11.1878 16.0259C8.25779 12.0452 7.74457 7.05381 7.68293 2.34375H22.1999C22.1382 7.05797 21.624 12.0538 18.6872 16.0363ZM23.1491 12.3765C23.2182 12.1714 23.2853 11.9647 23.3487 11.7554C24.0771 9.35092 24.3672 6.92062 24.4805 4.62891H27.6049C27.2657 8.39953 25.2932 10.6117 23.1491 12.3765Z" fill="white"/>
</svg>
