<svg width="53" height="50" viewBox="0 0 53 50" fill="none" xmlns="http://www.w3.org/2000/svg">
<path fill-rule="evenodd" clip-rule="evenodd" d="M39.6128 4.75288L40.6823 0.765112C40.8299 0.214435 41.3959 -0.112101 41.9462 0.035445C42.4968 0.182991 42.8234 0.748987 42.6758 1.29966L41.6067 5.28744C41.4588 5.83852 40.8928 6.16425 40.3425 6.0171C39.7918 5.86915 39.4653 5.30356 39.6128 4.75288ZM15.1029 47.9355L9.90572 38.9332C6.63955 40.2409 2.79288 38.9977 0.968304 35.8371C-1.02881 32.3807 0.165267 27.9583 3.61244 25.9689L12.3769 20.9088L25.8584 3.73458C26.4317 2.83761 27.3992 2.30709 28.4651 2.30709C28.4784 2.30709 28.4913 2.30709 28.5046 2.30749C29.6075 2.3212 30.5956 2.89969 31.1471 3.85511L34.9547 10.4503L38.9251 10.2121C39.3141 10.1891 39.6854 10.3875 39.8809 10.7261L41.945 14.301C42.1405 14.6397 42.1276 15.0593 41.9123 15.3859L39.7205 18.7057L43.1503 24.6462C44.3089 26.6518 42.9347 29.1605 40.6408 29.285C22.0859 32.9249 21.0338 33.1313 20.8737 33.1623L22.2157 35.4868C22.5007 35.9802 22.3314 36.6111 21.838 36.8965L19.1568 38.4446L22.2528 43.8078C23.3949 45.7836 22.7164 48.306 20.7423 49.4468C18.7472 50.6002 16.2244 49.8802 15.1029 47.9355ZM19.7095 47.6593C20.6983 47.0881 21.0358 45.8263 20.4657 44.8402C20.453 44.8182 20.458 44.8269 20.4622 44.8342L20.4631 44.8358C20.4645 44.8383 20.4657 44.8403 20.4657 44.8403C20.4656 44.8404 20.2978 44.5498 18.4384 41.3287L18.408 41.276L15.3053 35.9012L11.7303 37.9652L16.8904 46.9039C17.4539 47.8807 18.7174 48.233 19.7095 47.6593ZM17.0927 34.8692L18.1248 36.6567L19.9122 35.6247L18.8802 33.8372L17.0927 34.8692ZM39.8386 14.7808L38.4123 12.3104L36.1084 12.4487L38.5667 16.7069L39.8386 14.7808ZM28.4792 4.37112C28.301 4.36629 27.8616 4.41305 27.5846 4.86617C27.5499 4.92317 27.5232 4.95698 27.4332 5.07092L27.4331 5.07097L27.433 5.07114C27.3862 5.13043 27.3222 5.2114 27.2311 5.32856L39.9285 27.3214C40.0455 27.2995 40.1314 27.2821 40.1989 27.2684L40.1991 27.2683C40.3391 27.2399 40.3995 27.2276 40.4945 27.2254C41.2786 27.2061 41.7539 26.3551 41.3628 25.6782L29.3592 4.88673C29.0944 4.42796 28.6553 4.37314 28.4792 4.37112ZM37.7875 27.7414L25.8576 7.07815L14.3083 21.7908L19.7828 31.2729L37.7875 27.7414ZM2.06321 32.2303C2.06321 33.1309 2.30267 34.021 2.75579 34.8051C4.17844 37.269 7.34019 38.1164 9.80453 36.6942L17.8482 32.0497L12.6881 23.1123L4.64446 27.7564C3.05249 28.6755 2.06321 30.3896 2.06321 32.2303ZM45.5542 7.7147L51.3048 4.51465C51.8027 4.23729 52.4312 4.41628 52.7081 4.91455C52.9855 5.41242 52.8065 6.0409 52.3082 6.31826L46.558 9.51831C46.0589 9.79607 45.4308 9.61587 45.1543 9.1184C44.8769 8.62054 45.0563 7.99206 45.5542 7.7147ZM50.7015 15.2033L46.7141 14.135C46.1634 13.9874 45.5975 14.314 45.4499 14.8646C45.3024 15.4153 45.6293 15.9809 46.18 16.1284L50.1678 17.1967C50.7217 17.3455 51.2848 17.0137 51.4316 16.4671C51.5791 15.9164 51.2522 15.3504 50.7015 15.2033Z" fill="white"/>
</svg>
