<svg width="50" height="50" viewBox="0 0 50 50" fill="none" xmlns="http://www.w3.org/2000/svg">
<path fill-rule="evenodd" clip-rule="evenodd" d="M15.1202 24.665C14.8536 24.665 14.5869 24.5629 14.3828 24.3609L6.89187 16.8678C6.50024 16.4762 6.48358 15.845 6.85437 15.4347L6.88183 15.4042L2.44567 14.341C2.07904 14.2535 1.7874 13.9764 1.68533 13.6119C1.58326 13.2494 1.68533 12.8599 1.94989 12.5933C4.40906 10.1341 8.34326 8.70059 13.0676 8.53308C17.4316 3.54558 24.3017 0.11469 30.1875 0.00492665C30.4333 -0.0284034 30.7437 0.111166 30.9437 0.309063C31.1436 0.511127 31.252 0.784017 31.2478 1.06524C31.1381 6.94503 27.7142 13.807 22.7187 18.184C22.5512 22.9065 21.1177 26.8408 18.6585 29.3C18.4606 29.4979 18.1939 29.6062 17.9231 29.6062C17.8294 29.6062 17.7336 29.5937 17.6398 29.5666C17.2774 29.4625 16.9982 29.175 16.9086 28.8063L15.8458 24.3715L15.816 24.3984C15.6202 24.5775 15.3702 24.665 15.1202 24.665ZM9.66819 15.4247C9.63029 15.4754 9.58807 15.5221 9.54221 15.5646L9.06457 16.095L15.1598 22.1902L15.6609 21.7387C15.7184 21.6719 15.7846 21.612 15.8581 21.5611L21.2384 16.7137C25.5629 12.9703 28.6168 7.25213 29.1001 2.15263C24.0006 2.63592 18.2845 5.68978 14.5536 9.99977L14.3644 10.2099C14.3371 10.2443 14.3077 10.277 14.2763 10.3077L9.66819 15.4247ZM8.46776 13.6433L11.0376 10.79C9.12553 11.0416 6.88467 11.6039 4.99542 12.812L8.46776 13.6433ZM17.6084 22.7839L18.4397 26.2565C19.6477 24.3674 20.2101 22.1258 20.4617 20.2138L17.6084 22.7839ZM48.0495 15.3118C48.2433 15.6471 48.5932 15.8325 48.9536 15.8325C49.1307 15.8325 49.3098 15.7888 49.4723 15.693C49.9702 15.4055 50.141 14.7681 49.8535 14.2702L46.7288 8.85822C46.4393 8.35827 45.8018 8.18746 45.3061 8.47701L39.8941 11.6017C39.3962 11.8892 39.2254 12.5266 39.5129 13.0245C39.8004 13.5223 40.4378 13.6911 40.9357 13.4057L44.1085 11.5738C35.0356 39.771 2.35062 39.5913 1.10511 39.5845L1.07107 39.5844C0.479462 39.6094 0.0170081 40.0218 0.000343086 40.5968C-0.0142388 41.1717 0.4378 41.6508 1.01274 41.6675L1.03804 41.6678H1.03824L1.03864 41.6678L1.03952 41.6678H1.03974C1.08099 41.6684 1.16493 41.6696 1.2898 41.6696C4.63308 41.6696 37.0227 40.8931 46.1517 12.0246L48.0495 15.3118ZM44.7871 50C44.2122 50 43.7455 49.5334 43.7455 48.9585V21.8778C43.7455 21.3029 44.2122 20.8362 44.7871 20.8362C45.362 20.8362 45.8287 21.3029 45.8287 21.8778V48.9585C45.8287 49.5334 45.362 50 44.7871 50ZM31.2472 48.9584C31.2472 49.5333 31.7138 50 32.2888 50C32.8637 50 33.3303 49.5333 33.3303 48.9584V36.4596C33.3303 35.8847 32.8637 35.4181 32.2888 35.4181C31.7138 35.4181 31.2472 35.8847 31.2472 36.4596V48.9584ZM19.7904 50C19.2155 50 18.7489 49.5334 18.7489 48.9584V42.709C18.7489 42.1341 19.2155 41.6675 19.7904 41.6675C20.3654 41.6675 20.832 42.1341 20.832 42.709V48.9584C20.832 49.5334 20.3654 50 19.7904 50ZM6.24917 48.9584C6.24917 49.5333 6.71579 50 7.29073 50C7.86568 50 8.3323 49.5333 8.3323 48.9584V45.8337C8.3323 45.2588 7.86568 44.7921 7.29073 44.7921C6.71579 44.7921 6.24917 45.2588 6.24917 45.8337V48.9584ZM0.304585 30.9477C0.504566 31.1435 0.769123 31.2518 1.04201 31.2518C1.142 31.2518 1.24199 31.2373 1.34198 31.2081C2.49187 30.8644 8.29755 29.0791 9.69532 27.6793C11.3827 25.9919 11.3827 23.2464 9.69532 21.559C8.00383 19.8696 5.26035 19.8717 3.5751 21.559C2.17523 22.9589 0.387911 28.7625 0.0441945 29.9124C-0.0662112 30.279 0.0337789 30.6769 0.304585 30.9477ZM5.04787 23.0318C5.48532 22.5944 6.06027 22.3756 6.63521 22.3756C7.20807 22.3756 7.78301 22.5944 8.22047 23.0339C9.09538 23.9067 9.09538 25.3316 8.22047 26.2065C7.63095 26.796 5.02079 27.8126 2.64394 28.6083C3.43969 26.2315 4.45626 23.6234 5.04787 23.0318Z" fill="white"/>
</svg>
