<svg width="50" height="50" viewBox="0 0 50 50" fill="none" xmlns="http://www.w3.org/2000/svg">
<path d="M29.8388 18.5484C29.8388 17.2677 29.2025 16.0798 28.138 15.3701L27.4194 14.8911V12.4064C28.0162 11.7621 28.5097 11.0484 28.892 10.2798L31.6509 9.17577C32.5097 8.83303 33.0646 8.01287 33.0646 7.08787C33.0646 5.84755 32.0557 4.83867 30.8154 4.83867H29.8388C29.8388 4.39351 29.4775 4.03222 29.0323 4.03222H20.9678C20.5226 4.03222 20.1614 4.39351 20.1614 4.83867H19.1847C17.9444 4.83867 16.9355 5.84755 16.9355 7.08787C16.9355 8.01287 17.4904 8.83303 18.3493 9.17577L21.1081 10.2798C21.4904 11.0484 21.9839 11.7621 22.5807 12.4064V14.8911L21.8622 15.3701C20.7976 16.0798 20.1614 17.2677 20.1614 18.5484C20.1614 18.9935 20.5226 19.3548 20.9678 19.3548H29.0323C29.4775 19.3548 29.8388 18.9935 29.8388 18.5484ZM24.1936 12.9032H25.8065V14.5161H24.1936V12.9032ZM30.8154 6.45158C31.1662 6.45158 31.4517 6.73706 31.4517 7.08787C31.4517 7.34916 31.2952 7.58142 31.0517 7.67819L29.6105 8.2548C29.742 7.66771 29.8162 7.06529 29.8291 6.45158H30.8154ZM21.7743 5.64513H28.2259V6.25561C28.2259 8.13706 27.5339 9.91206 26.2694 11.2903H23.7315C22.4662 9.91287 21.7743 8.13706 21.7743 6.25561V5.64513ZM18.9485 7.67819C18.7049 7.58142 18.5485 7.34916 18.5485 7.08787C18.5485 6.73706 18.8339 6.45158 19.1847 6.45158H20.171C20.1839 7.06529 20.2581 7.66771 20.3896 8.2548L18.9485 7.67819ZM21.9259 17.7419C22.088 17.3274 22.3751 16.9669 22.7565 16.7121L23.6315 16.129H26.3694L27.2436 16.7121C27.6259 16.9669 27.9122 17.3282 28.0743 17.7419H21.9259Z" fill="white"/>
<path d="M49.1936 45.1613H45.9677V42.7419C45.9677 42.2968 45.6065 41.9355 45.1613 41.9355H39.5161V38.7097H42.7419C43.1871 38.7097 43.5484 38.3484 43.5484 37.9032V34.6774C43.5484 34.2323 43.1871 33.871 42.7419 33.871H39.5161V31.4516C39.5161 31.0065 39.1548 30.6452 38.7097 30.6452H25.8065V29.0323H30.6452C31.0903 29.0323 31.4516 28.671 31.4516 28.2258V25C31.4516 24.5548 31.0903 24.1935 30.6452 24.1935H25.8065V22.5395C31.6556 22.1234 36.2903 17.2435 36.2903 11.2903C36.2903 5.06452 31.2258 0 25 0C18.7742 0 13.7097 5.06452 13.7097 11.2903C13.7097 17.2435 18.3444 22.1234 24.1935 22.5395V24.1935H19.3548C18.9097 24.1935 18.5484 24.5548 18.5484 25V28.2258C18.5484 28.671 18.9097 29.0323 19.3548 29.0323H24.1935V30.6452H11.2903C10.8452 30.6452 10.4839 31.0065 10.4839 31.4516V33.871H7.25806C6.8129 33.871 6.45161 34.2323 6.45161 34.6774V37.9032C6.45161 38.3484 6.8129 38.7097 7.25806 38.7097H10.4839V41.9355H4.83871C4.39355 41.9355 4.03226 42.2968 4.03226 42.7419V45.1613H0.806452C0.36129 45.1613 0 45.5226 0 45.9677V49.1936C0 49.6387 0.36129 50 0.806452 50H8.87097C9.31613 50 9.67742 49.6387 9.67742 49.1936V45.9677C9.67742 45.5226 9.31613 45.1613 8.87097 45.1613H5.64516V43.5484H16.9355V45.1613H13.7097C13.2645 45.1613 12.9032 45.5226 12.9032 45.9677V49.1936C12.9032 49.6387 13.2645 50 13.7097 50H21.7742C22.2194 50 22.5806 49.6387 22.5806 49.1936V45.9677C22.5806 45.5226 22.2194 45.1613 21.7742 45.1613H18.5484V42.7419C18.5484 42.2968 18.1871 41.9355 17.7419 41.9355H12.0968V38.7097H15.3226C15.7677 38.7097 16.129 38.3484 16.129 37.9032V34.6774C16.129 34.2323 15.7677 33.871 15.3226 33.871H12.0968V32.2581H37.9032V33.871H34.6774C34.2323 33.871 33.871 34.2323 33.871 34.6774V37.9032C33.871 38.3484 34.2323 38.7097 34.6774 38.7097H37.9032V41.9355H32.2581C31.8129 41.9355 31.4516 42.2968 31.4516 42.7419V45.1613H28.2258C27.7806 45.1613 27.4194 45.5226 27.4194 45.9677V49.1936C27.4194 49.6387 27.7806 50 28.2258 50H36.2903C36.7355 50 37.0968 49.6387 37.0968 49.1936V45.9677C37.0968 45.5226 36.7355 45.1613 36.2903 45.1613H33.0645V43.5484H44.3548V45.1613H41.129C40.6839 45.1613 40.3226 45.5226 40.3226 45.9677V49.1936C40.3226 49.6387 40.6839 50 41.129 50H49.1936C49.6387 50 50 49.6387 50 49.1936V45.9677C50 45.5226 49.6387 45.1613 49.1936 45.1613ZM15.3226 11.2903C15.3226 5.95403 19.6637 1.6129 25 1.6129C30.3363 1.6129 34.6774 5.95403 34.6774 11.2903C34.6774 16.6266 30.3363 20.9677 25 20.9677C19.6637 20.9677 15.3226 16.6266 15.3226 11.2903ZM20.1613 25.8065H29.8387V27.4194H20.1613V25.8065ZM8.06452 48.3871H1.6129V46.7742H8.06452V48.3871ZM20.9677 48.3871H14.5161V46.7742H20.9677V48.3871ZM14.5161 37.0968H8.06452V35.4839H14.5161V37.0968ZM35.4839 35.4839H41.9355V37.0968H35.4839V35.4839ZM35.4839 48.3871H29.0323V46.7742H35.4839V48.3871ZM48.3871 48.3871H41.9355V46.7742H48.3871V48.3871Z" fill="white"/>
<path d="M8.06402 28.2258H9.67693C9.67693 22.8548 7.27128 17.8492 3.07693 14.4935L1.30999 13.0798L0.302734 14.3395L2.06967 15.7532C5.87935 18.8008 8.06402 23.3476 8.06402 28.2258Z" fill="white"/>
<path d="M5.07422 10.2476C8.04196 13.2154 9.67664 17.1621 9.67664 21.3589V21.7742H11.2895V21.3589C11.2895 16.7307 9.48712 12.3799 6.21454 9.1073L5.07422 10.2476Z" fill="white"/>
<path d="M4.83789 2.41919H6.45079V4.0321H4.83789V2.41919Z" fill="white"/>
<path d="M6.45117 4.03222H8.06407V5.64513H6.45117V4.03222Z" fill="white"/>
<path d="M4.83789 5.64508H6.45079V7.25798H4.83789V5.64508Z" fill="white"/>
<path d="M3.22656 4.03222H4.83947V5.64513H3.22656V4.03222Z" fill="white"/>
<path d="M12.9023 21.7742H14.5152V23.3871H12.9023V21.7742Z" fill="white"/>
<path d="M14.5156 23.3871H16.1285V25H14.5156V23.3871Z" fill="white"/>
<path d="M12.9023 25H14.5152V26.6129H12.9023V25Z" fill="white"/>
<path d="M11.291 23.3871H12.9039V25H11.291V23.3871Z" fill="white"/>
<path d="M40.3223 28.2258H41.9352C41.9352 23.3476 44.1198 18.8008 47.9295 15.7532L49.6965 14.3395L48.6892 13.0798L46.9223 14.4935C42.7279 17.8492 40.3223 22.8548 40.3223 28.2258Z" fill="white"/>
<path d="M40.3219 21.3589C40.3219 17.1613 41.9566 13.2154 44.9243 10.2476L43.784 9.1073C40.5114 12.3799 38.709 16.7315 38.709 21.3589V21.7742H40.3219V21.3589Z" fill="white"/>
<path d="M43.5488 2.41919H45.1617V4.0321H43.5488V2.41919Z" fill="white"/>
<path d="M41.9355 4.03222H43.5484V5.64513H41.9355V4.03222Z" fill="white"/>
<path d="M43.5488 5.64508H45.1617V7.25798H43.5488V5.64508Z" fill="white"/>
<path d="M45.1621 4.03222H46.775V5.64513H45.1621V4.03222Z" fill="white"/>
<path d="M35.4844 21.7742H37.0973V23.3871H35.4844V21.7742Z" fill="white"/>
<path d="M33.8711 23.3871H35.484V25H33.8711V23.3871Z" fill="white"/>
<path d="M35.4844 25H37.0973V26.6129H35.4844V25Z" fill="white"/>
<path d="M37.0977 23.3871H38.7106V25H37.0977V23.3871Z" fill="white"/>
</svg>
