<svg width="54" height="50" viewBox="0 0 54 50" fill="none" xmlns="http://www.w3.org/2000/svg">
<path fill-rule="evenodd" clip-rule="evenodd" d="M51.0246 6.24792H44.3602V2.2909C44.3602 1.02749 43.3327 0 42.0693 0H11.2462C9.98283 0 8.95535 1.02749 8.95535 2.2909V6.24792H2.2909C1.02749 6.24792 0 7.2754 0 8.53882V43.5438C0 44.8068 1.02749 45.8347 2.2909 45.8347H8.95535V47.7091C8.95535 48.9721 9.98283 50 11.2462 50H42.0693C43.3327 50 44.3602 48.9721 44.3602 47.7091V45.8347H51.0246C52.2881 45.8347 53.3155 44.8068 53.3155 43.5438V8.53882C53.3155 7.2754 52.2881 6.24792 51.0246 6.24792ZM51.2329 8.53882V12.4958H44.3602V11.4639H48.1089C48.6841 11.4639 49.1503 10.9973 49.1503 10.4225C49.1503 9.84738 48.6841 9.38123 48.1089 9.38123H44.3602V8.33055H51.0246C51.1377 8.33055 51.2329 8.42574 51.2329 8.53882ZM11.038 8.33055H42.2776V18.7604H26.6594H26.6566H11.038V8.33055ZM42.2776 21.934V33.9564L36.3441 28.0196L42.2776 21.934ZM34.8716 26.5467L29.1708 20.8431H40.4325L34.8716 26.5467ZM33.4174 28.0379L27.6991 33.9031V22.3164L33.4174 28.0379ZM34.8899 29.5112L40.8059 35.4301H29.1191L34.8899 29.5112ZM11.2462 2.08264H42.0693C42.1824 2.08264 42.2776 2.17782 42.2776 2.2909V6.24792H11.038V2.2909C11.038 2.17782 11.1332 2.08264 11.2462 2.08264ZM2.2909 8.33055H8.95535V12.4958H2.08264V8.53882C2.08264 8.42574 2.17782 8.33055 2.2909 8.33055ZM2.2909 43.7521C2.17782 43.7521 2.08264 43.6565 2.08264 43.5438V14.5785H8.95535V43.7521H2.2909ZM42.2776 47.7091C42.2776 47.8218 42.1824 47.9174 42.0693 47.9174H11.2462C11.1332 47.9174 11.038 47.8218 11.038 47.7091V37.5127H13.2845C13.8593 37.5127 14.3259 37.0462 14.3259 36.4714C14.3259 35.8962 13.8593 35.4301 13.2845 35.4301H11.038V20.8431H25.6165V35.4301H21.6151C21.0399 35.4301 20.5738 35.8962 20.5738 36.4714C20.5738 37.0462 21.0399 37.5127 21.6151 37.5127H42.2776V47.7091ZM51.0246 43.7521H44.3602V36.4722V36.471V14.5785H51.2329V43.5438C51.2329 43.6565 51.1377 43.7521 51.0246 43.7521ZM13.5869 4.75268C13.5495 4.69614 13.517 4.63594 13.4909 4.57248C13.4649 4.50984 13.4454 4.44435 13.4319 4.37764C13.4181 4.31094 13.412 4.24219 13.412 4.17467C13.412 4.10715 13.4181 4.0384 13.4319 3.97047C13.4454 3.90498 13.4649 3.83949 13.4909 3.77604C13.517 3.7134 13.5495 3.65279 13.5869 3.59665C13.6243 3.5393 13.6683 3.48642 13.7159 3.43842C13.7639 3.39042 13.8172 3.3469 13.8745 3.30826C13.9306 3.27084 13.9908 3.23829 14.0543 3.21226C14.1169 3.18623 14.1824 3.1667 14.2491 3.15328C14.3834 3.12603 14.5221 3.12603 14.6563 3.15328C14.723 3.1667 14.7877 3.18623 14.8512 3.21226C14.9134 3.23829 14.974 3.27084 15.0301 3.30826C15.0875 3.3469 15.1404 3.39042 15.1884 3.43842C15.2364 3.48642 15.2803 3.5393 15.3185 3.59665C15.3559 3.65279 15.3885 3.7134 15.4145 3.77604C15.4406 3.83949 15.4601 3.90498 15.4739 3.97047C15.4873 4.0384 15.4934 4.10715 15.4934 4.17467C15.4934 4.24219 15.4873 4.31094 15.4739 4.37764C15.4601 4.44435 15.4406 4.50984 15.4145 4.57248C15.3885 4.63594 15.3559 4.69614 15.3185 4.75268C15.2803 4.80963 15.2364 4.86292 15.1884 4.91091C15.1404 4.95891 15.0875 5.00244 15.0301 5.03986C14.974 5.07728 14.9134 5.10982 14.8512 5.13585C14.7885 5.16189 14.723 5.18141 14.6563 5.19524C14.5888 5.20867 14.5196 5.21599 14.4521 5.21599C14.3846 5.21599 14.3158 5.20867 14.2491 5.19524C14.1824 5.18141 14.1169 5.16189 14.0543 5.13585C13.9908 5.10982 13.9306 5.07728 13.8745 5.03986C13.8172 5.00244 13.7639 4.95891 13.7159 4.91091C13.6683 4.86292 13.6243 4.80963 13.5869 4.75268ZM39.1537 5.216H19.7851C19.21 5.216 18.7438 4.74944 18.7438 4.17468C18.7438 3.59951 19.21 3.13336 19.7851 3.13336H39.1537C39.7288 3.13336 40.195 3.59951 40.195 4.17468C40.195 4.74944 39.7288 5.216 39.1537 5.216ZM4.50259 11.2877C4.55913 11.3251 4.61933 11.3577 4.68279 11.3837C4.74543 11.4097 4.81092 11.4292 4.87763 11.4431C4.94434 11.4565 5.01308 11.4638 5.08061 11.4638C5.14813 11.4638 5.21687 11.4565 5.2848 11.4431C5.35151 11.4292 5.41578 11.4097 5.47924 11.3837C5.54188 11.3577 5.60249 11.3251 5.65862 11.2877C5.71597 11.2503 5.76885 11.2067 5.81685 11.1587C6.01169 10.9651 6.12193 10.6963 6.12193 10.4225C6.12193 10.355 6.11582 10.2862 6.1024 10.2183C6.08857 10.1528 6.06905 10.0873 6.04301 10.0239C6.01698 9.96123 5.98444 9.90062 5.94702 9.84449C5.90878 9.78713 5.86607 9.73425 5.81685 9.68626C5.76885 9.63826 5.71597 9.59473 5.65862 9.55609C5.60249 9.51867 5.54188 9.48613 5.47964 9.4601C5.41619 9.43406 5.35151 9.41454 5.2848 9.40111C5.14935 9.37386 5.01186 9.37386 4.87763 9.40111C4.81092 9.41454 4.74543 9.43406 4.68279 9.4601C4.61933 9.48613 4.55913 9.51867 4.503 9.55609C4.44565 9.59473 4.39236 9.63826 4.34436 9.68626C4.29677 9.73425 4.25284 9.78713 4.21542 9.84449C4.17799 9.90062 4.14545 9.96123 4.11942 10.0239C4.09339 10.0873 4.07386 10.1528 4.06044 10.2183C4.04661 10.2862 4.03929 10.355 4.03929 10.4225C4.03929 10.6963 4.15074 10.9651 4.34477 11.1587C4.39236 11.2067 4.44524 11.2503 4.50259 11.2877ZM24.4746 12.8644C24.512 12.9205 24.5445 12.9811 24.5706 13.0437C24.5966 13.1072 24.6161 13.1727 24.63 13.2382C24.6434 13.3061 24.6507 13.3748 24.6507 13.4424C24.6507 13.5099 24.6434 13.5786 24.63 13.6453C24.6161 13.7121 24.5966 13.7775 24.5706 13.8402C24.5445 13.9036 24.512 13.9638 24.4746 14.0204C24.4363 14.0773 24.3936 14.1306 24.3444 14.1786C24.2964 14.2266 24.2435 14.2701 24.1862 14.3076C24.1301 14.345 24.0694 14.3775 24.0072 14.4036C23.9446 14.4296 23.8791 14.4491 23.8124 14.4629C23.7448 14.4764 23.6769 14.4837 23.6094 14.4837C23.5407 14.4837 23.4719 14.4764 23.4052 14.4629C23.3385 14.4491 23.273 14.4296 23.2104 14.4036C23.1481 14.3775 23.0867 14.345 23.0306 14.3076C22.974 14.2701 22.9199 14.2266 22.8719 14.1786C22.8239 14.1306 22.7804 14.0773 22.743 14.0204C22.7056 13.9638 22.673 13.9036 22.647 13.8402C22.621 13.7775 22.6014 13.7121 22.588 13.6453C22.5742 13.5786 22.5669 13.5099 22.5669 13.4424C22.5669 13.3748 22.5742 13.3061 22.588 13.2382C22.6014 13.1727 22.621 13.1072 22.647 13.0437C22.673 12.9811 22.7056 12.9205 22.743 12.8644C22.7804 12.807 22.8239 12.7541 22.8719 12.7061C22.9199 12.6581 22.974 12.6146 23.0306 12.576C23.0875 12.5385 23.1481 12.506 23.2104 12.48C23.273 12.4539 23.3385 12.4344 23.4052 12.421C23.5394 12.3937 23.6781 12.3937 23.8124 12.421C23.8791 12.4344 23.9446 12.4539 24.0072 12.48C24.0694 12.506 24.1301 12.5385 24.1862 12.576C24.2435 12.6146 24.2964 12.6581 24.3444 12.7061C24.3936 12.7541 24.4363 12.807 24.4746 12.8644ZM26.657 14.4837C26.9308 14.4837 27.1997 14.3723 27.3933 14.1787C27.5869 13.985 27.6984 13.7162 27.6984 13.4424C27.6984 13.3749 27.691 13.3061 27.6776 13.2382C27.6642 13.1727 27.6443 13.1072 27.6182 13.0438C27.5922 12.9811 27.5601 12.9205 27.5222 12.8644C27.4848 12.807 27.4413 12.7542 27.3933 12.7062C27.1517 12.4633 26.7913 12.3531 26.4541 12.421C26.3873 12.4344 26.3219 12.454 26.2584 12.48C26.1958 12.506 26.1352 12.5386 26.079 12.576C26.0217 12.6146 25.9688 12.6582 25.9208 12.7062C25.8728 12.7542 25.8293 12.807 25.7906 12.8644C25.7532 12.9205 25.7207 12.9811 25.6946 13.0438C25.6686 13.1072 25.6491 13.1727 25.6352 13.2382C25.6218 13.3061 25.6157 13.3749 25.6157 13.4424C25.6157 13.5099 25.6218 13.5787 25.6352 13.6454C25.6491 13.7121 25.6698 13.7776 25.6958 13.8402C25.7219 13.9037 25.754 13.9639 25.7914 14.0204C25.8293 14.0774 25.8728 14.1307 25.9208 14.1787C25.9688 14.2267 26.0217 14.2702 26.079 14.3076C26.1352 14.345 26.1958 14.3776 26.2584 14.4036C26.3219 14.4296 26.3873 14.4492 26.4541 14.463C26.5208 14.4764 26.5895 14.4837 26.657 14.4837ZM28.8407 14.0204C28.8033 13.9638 28.7707 13.9036 28.7447 13.8402C28.7187 13.7775 28.6992 13.7121 28.6853 13.6453C28.6719 13.5786 28.6646 13.5099 28.6646 13.4424C28.6646 13.3748 28.6719 13.3061 28.6853 13.2382C28.6992 13.1727 28.7187 13.1072 28.7447 13.0437C28.7707 12.9811 28.8033 12.9205 28.8407 12.8644C28.8781 12.807 28.9217 12.7541 28.9697 12.7061C29.0176 12.6573 29.0717 12.6146 29.1291 12.576C29.1852 12.5385 29.2454 12.506 29.3081 12.48C29.3715 12.4539 29.4362 12.4344 29.5029 12.421C29.6372 12.3937 29.7755 12.3937 29.9101 12.421C29.9768 12.4344 30.0423 12.4539 30.1045 12.48C30.1672 12.506 30.2274 12.5385 30.2847 12.576C30.3413 12.6146 30.3954 12.6573 30.443 12.7061C30.491 12.7541 30.5349 12.807 30.5723 12.8644C30.6097 12.9205 30.6419 12.9811 30.6679 13.0437C30.6939 13.1072 30.7139 13.1727 30.7273 13.2382C30.7407 13.3061 30.7472 13.3748 30.7472 13.4424C30.7472 13.5099 30.7411 13.5786 30.7273 13.6453C30.7139 13.7121 30.6939 13.7775 30.6679 13.8402C30.6419 13.9036 30.6097 13.9638 30.5723 14.0204C30.5349 14.0773 30.491 14.1306 30.443 14.1786C30.3954 14.2266 30.3409 14.2701 30.2847 14.3076C30.2278 14.345 30.1672 14.3775 30.1045 14.4036C30.0423 14.4296 29.9768 14.4491 29.9101 14.4629C29.8422 14.4764 29.7746 14.4837 29.7071 14.4837C29.6384 14.4837 29.5704 14.4764 29.5029 14.4629C29.4362 14.4491 29.3715 14.4296 29.3081 14.4036C29.2454 14.3775 29.1852 14.345 29.1291 14.3076C29.0717 14.2701 29.0176 14.2266 28.9697 14.1786C28.9217 14.1306 28.8781 14.0773 28.8407 14.0204ZM38.5292 39.5868H27.0747C26.4995 39.5868 26.0333 40.053 26.0333 40.6281C26.0333 41.2029 26.4995 41.6694 27.0747 41.6694H38.5292C39.1043 41.6694 39.5705 41.2029 39.5705 40.6281C39.5705 40.053 39.1043 39.5868 38.5292 39.5868ZM27.0747 43.7521H38.5292C39.1043 43.7521 39.5705 44.2182 39.5705 44.7934C39.5705 45.3681 39.1043 45.8347 38.5292 45.8347H27.0747C26.4995 45.8347 26.0333 45.3681 26.0333 44.7934C26.0333 44.2182 26.4995 43.7521 27.0747 43.7521ZM18.223 39.5868C16.5003 39.5868 15.099 40.9881 15.099 42.7108C15.099 44.4334 16.5003 45.8347 18.223 45.8347C19.9457 45.8347 21.347 44.4334 21.347 42.7108C21.347 40.9881 19.9457 39.5868 18.223 39.5868ZM18.223 43.7521C17.6486 43.7521 17.1817 43.2851 17.1817 42.7108C17.1817 42.1364 17.6486 41.6694 18.223 41.6694C18.7974 41.6694 19.2643 42.1364 19.2643 42.7108C19.2643 43.2851 18.7974 43.7521 18.223 43.7521ZM17.7025 25.0083H13.5372C12.962 25.0083 12.4959 24.5418 12.4959 23.967C12.4959 23.3918 12.962 22.9257 13.5372 22.9257H17.7025C18.2776 22.9257 18.7438 23.3918 18.7438 23.967C18.7438 24.5418 18.2776 25.0083 17.7025 25.0083ZM13.5372 29.1651H21.8677C22.4429 29.1651 22.9091 28.699 22.9091 28.1238C22.9091 27.549 22.4429 27.0825 21.8677 27.0825H13.5372C12.962 27.0825 12.4959 27.549 12.4959 28.1238C12.4959 28.699 12.962 29.1651 13.5372 29.1651ZM19.7851 31.2563C20.3603 31.2563 20.8264 31.7224 20.8264 32.2976C20.8264 32.8728 20.3603 33.3389 19.7851 33.3389H13.5372C12.962 33.3389 12.4959 32.8724 12.4959 32.2976C12.4959 31.7224 12.962 31.2563 13.5372 31.2563H19.7851ZM17.6177 35.4329C17.6844 35.4463 17.7499 35.4663 17.8121 35.4923C17.876 35.5183 17.9362 35.5505 17.9923 35.5883C18.0497 35.6265 18.1025 35.6705 18.1505 35.7185C18.3442 35.9121 18.4556 36.1805 18.4556 36.4543C18.4556 36.5222 18.4495 36.591 18.4361 36.6577C18.4223 36.7244 18.4015 36.7899 18.3755 36.8521C18.3495 36.9156 18.3173 36.9762 18.2799 37.0323C18.2421 37.0897 18.1985 37.1426 18.1505 37.1905C18.1025 37.2385 18.0497 37.2825 17.9923 37.3199C17.9362 37.3573 17.8756 37.3895 17.8121 37.4155C17.7499 37.4415 17.684 37.4615 17.6173 37.4749C17.551 37.4883 17.4822 37.4956 17.4143 37.4956C17.3468 37.4956 17.278 37.4883 17.2113 37.4749C17.1446 37.4615 17.0791 37.4415 17.0169 37.4155C16.953 37.3895 16.8928 37.3573 16.8367 37.3199C16.7793 37.2825 16.7261 37.2385 16.6785 37.1905C16.6305 37.1426 16.5865 37.0897 16.5491 37.0323C16.5105 36.9762 16.4796 36.9156 16.4535 36.8521C16.4275 36.7899 16.4063 36.7244 16.3941 36.6577C16.3803 36.591 16.3734 36.5222 16.3734 36.4543C16.3734 36.1797 16.4848 35.9121 16.6785 35.7185C16.7265 35.6705 16.7793 35.6265 16.8367 35.5883C16.8928 35.5505 16.9534 35.5183 17.0169 35.4923C17.0791 35.4663 17.1446 35.4463 17.2113 35.4329C17.3447 35.4061 17.483 35.4061 17.6177 35.4329Z" fill="white"/>
</svg>
